<svg width="180" height="167" viewBox="0 0 180 167" fill="none" xmlns="http://www.w3.org/2000/svg">
<path d="M95.5642 166.779C142.099 166.779 179.824 146.144 179.824 120.69C179.824 95.2351 142.099 74.6001 95.5642 74.6001C49.0289 74.6001 11.3047 95.2351 11.3047 120.69C11.3047 146.144 49.0289 166.779 95.5642 166.779Z" fill="#F5F5F5"/>
<path d="M110.692 158.903L152.031 136.296C152.936 135.8 152.936 134.997 152.031 134.501L73.7669 91.688C73.2586 91.4437 72.6967 91.3164 72.1268 91.3164C71.5569 91.3164 70.995 91.4437 70.4868 91.688L29.1487 114.295C28.2434 114.79 28.2434 115.594 29.1487 116.089L107.412 158.903C107.921 159.147 108.482 159.274 109.052 159.274C109.622 159.274 110.184 159.147 110.692 158.903Z" fill="#E0E0E0"/>
<path d="M37.0541 115.153L40.2964 113.38C40.2964 113.38 41.088 106.806 40.5615 101.714C39.804 94.5625 34.9407 85.9538 29.1229 87.9741C23.3051 89.9944 31.7742 97.2825 33.668 103.35C35.5618 109.419 37.0541 115.153 37.0541 115.153Z" fill="#BA68C8"/>
<path opacity="0.15" d="M37.0541 115.153L40.2964 113.38C40.2964 113.38 41.088 106.806 40.5615 101.714C39.804 94.5625 34.9407 85.9538 29.1229 87.9741C23.3051 89.9944 31.7742 97.2825 33.668 103.35C35.5618 109.419 37.0541 115.153 37.0541 115.153Z" fill="black"/>
<path d="M38.7503 114.406C38.6987 114.404 38.65 114.383 38.6145 114.348C38.5791 114.312 38.5599 114.265 38.5609 114.216C39.129 98.3194 30.7963 90.3209 30.694 90.2419C30.6756 90.2249 30.6609 90.2045 30.6509 90.182C30.6409 90.1595 30.6357 90.1353 30.6357 90.1109C30.6357 90.0865 30.6409 90.0624 30.6509 90.0399C30.6609 90.0174 30.6756 89.997 30.694 89.98C30.7308 89.9456 30.7805 89.9263 30.8322 89.9263C30.884 89.9263 30.9336 89.9456 30.9705 89.98C31.0538 90.0625 39.5305 98.1723 38.9548 114.23C38.9519 114.279 38.9288 114.325 38.8905 114.358C38.8523 114.391 38.8019 114.408 38.7503 114.406V114.406Z" fill="white"/>
<path d="M35.3418 116.423L37.6144 115.16C37.6144 115.16 37.9932 110.649 35.6751 105.17C33.6412 100.397 28.5998 96.4391 26.0621 97.2752C23.5244 98.1113 23.6002 99.8015 24.8387 101.596C26.0773 103.39 33.5995 107.642 35.3418 116.423Z" fill="#BA68C8"/>
<path d="M36.5426 115.95C36.4904 115.95 36.4403 115.93 36.4033 115.895C36.3664 115.86 36.3457 115.812 36.3457 115.763C36.3911 105.715 26.4297 98.9189 26.3274 98.8507C26.2855 98.8219 26.2573 98.7787 26.2488 98.7304C26.2403 98.682 26.2522 98.6325 26.2819 98.5924C26.2967 98.5723 26.3155 98.5553 26.3372 98.5423C26.359 98.5292 26.3833 98.5204 26.4087 98.5164C26.4341 98.5124 26.4601 98.5132 26.4852 98.5189C26.5103 98.5245 26.5339 98.5349 26.5546 98.5493C26.6569 98.6175 36.7812 105.522 36.7396 115.774C36.7358 115.821 36.7135 115.865 36.6771 115.898C36.6406 115.93 36.5927 115.949 36.5426 115.95Z" fill="white"/>
<path d="M147.732 20.0344L150.996 21.8287C150.977 21.693 150.967 21.5564 150.966 21.4196V20.4974C150.966 18.9041 152.148 18.2582 153.618 19.062C154.244 19.4279 154.78 19.9175 155.189 20.4974C155.428 18.495 157.083 17.7486 159.102 18.8503C161.28 20.0416 163.049 22.9411 163.049 25.3094V26.6479C163.063 27.1834 162.948 27.7149 162.712 28.2017L165.424 29.6837C165.849 29.9463 166.203 30.3002 166.457 30.7167C166.711 31.1332 166.858 31.6005 166.886 32.0808C166.886 32.9671 166.23 33.3224 165.424 32.881L147.732 23.2317C147.306 22.9691 146.952 22.6152 146.698 22.1987C146.444 21.7823 146.297 21.3149 146.27 20.8347C146.27 19.9483 146.925 19.5895 147.732 20.0344Z" fill="#EBEBEB"/>
<path d="M134.198 27.9934L136.588 29.2996C136.583 29.2004 136.583 29.101 136.588 29.0018V28.3451C136.588 27.1753 137.452 26.7016 138.52 27.2686C138.973 27.5384 139.361 27.8969 139.656 28.32C139.83 26.8487 141.046 26.3033 142.523 27.1107C143.365 27.6306 144.066 28.331 144.568 29.1552C145.071 29.9793 145.362 30.9041 145.417 31.8546V32.8378C145.426 33.2297 145.342 33.6185 145.171 33.9753L147.156 35.0519C147.468 35.244 147.729 35.5034 147.916 35.809C148.103 36.1145 148.211 36.4576 148.231 36.8102C148.231 37.4597 147.75 37.7216 147.156 37.3951L134.198 30.3403C133.886 30.1472 133.626 29.887 133.44 29.5808C133.254 29.2747 133.146 28.9312 133.126 28.5784C133.111 27.9324 133.588 27.6741 134.198 27.9934Z" fill="#EBEBEB"/>
<path d="M149.523 128.606C150.114 129.036 150.05 129.65 149.338 130.041L110.336 151.381C109.897 151.592 109.411 151.702 108.918 151.702C108.425 151.702 107.939 151.592 107.499 151.381L32.9135 110.592C32.1901 110.197 32.1333 109.576 32.7469 109.156C32.38 109.419 32.0778 109.754 31.8613 110.138C31.6448 110.522 31.5191 110.946 31.4932 111.381V113.158C31.5202 113.625 31.6629 114.079 31.9096 114.484C32.1564 114.89 32.5003 115.234 32.9135 115.49L107.473 156.265C107.913 156.478 108.4 156.588 108.893 156.588C109.387 156.588 109.874 156.478 110.314 156.265L149.326 134.929C149.74 134.673 150.084 134.33 150.33 133.925C150.577 133.52 150.72 133.066 150.747 132.6V130.805C150.72 130.377 150.597 129.96 150.386 129.58C150.175 129.201 149.881 128.869 149.523 128.606V128.606Z" fill="#455A64"/>
<path d="M149.349 128.487L74.7666 87.6979C74.3268 87.4872 73.8409 87.3774 73.3481 87.3774C72.8553 87.3774 72.3694 87.4872 71.9297 87.6979L32.9171 109.042C32.1331 109.469 32.1331 110.165 32.9171 110.592L107.48 151.381C107.92 151.592 108.406 151.702 108.899 151.702C109.392 151.702 109.877 151.592 110.317 151.381L149.33 130.038C150.106 129.611 150.106 128.914 149.349 128.487ZM139.232 125.19C139.902 125.548 139.902 126.151 139.232 126.517L103.757 145.927C103.379 146.108 102.962 146.202 102.539 146.202C102.116 146.202 101.699 146.108 101.322 145.927L43.2498 114.155C42.5794 113.796 42.5794 113.19 43.2498 112.824L78.7284 93.4178C79.3989 93.0589 80.0996 92.8365 80.77 93.2025L139.232 125.19Z" fill="#37474F"/>
<path d="M32.7469 109.131C32.38 109.394 32.0778 109.729 31.8613 110.113C31.6448 110.497 31.5191 110.921 31.4932 111.356V113.132C31.5205 113.599 31.6633 114.054 31.91 114.459C32.1567 114.864 32.5005 115.209 32.9135 115.465L107.473 156.265C107.911 156.484 108.401 156.595 108.897 156.588V151.701C108.403 151.71 107.914 151.6 107.477 151.381L32.9135 110.592C32.1901 110.208 32.1333 109.576 32.7469 109.131Z" fill="#263238"/>
<path d="M56.1734 100.466C56.6999 100.178 56.6999 99.712 56.1734 99.4249C55.8798 99.2846 55.5554 99.2114 55.2265 99.2114C54.8976 99.2114 54.5733 99.2846 54.2796 99.4249C53.7531 99.712 53.7531 100.178 54.2796 100.466C54.5733 100.606 54.8976 100.679 55.2265 100.679C55.5554 100.679 55.8798 100.606 56.1734 100.466V100.466Z" fill="black"/>
<path d="M128.38 139.497C129.619 138.822 129.619 137.724 128.38 137.049C127.687 136.714 126.919 136.539 126.14 136.539C125.361 136.539 124.593 136.714 123.9 137.049C122.661 137.724 122.661 138.822 123.9 139.497C124.593 139.832 125.361 140.008 126.14 140.008C126.919 140.008 127.687 139.832 128.38 139.497V139.497Z" stroke="#E6E6E6" stroke-miterlimit="10"/>
<path d="M55.2225 103.917L62.5705 99.902C63.0061 99.6615 63.0288 99.2848 62.6198 99.0587C62.3812 98.951 62.1195 98.8973 61.8553 98.9016C61.5911 98.906 61.3316 98.9683 61.0971 99.0838L53.7492 103.099C53.3136 103.34 53.2909 103.716 53.6999 103.943C53.9385 104.05 54.2001 104.104 54.4644 104.1C54.7286 104.095 54.9881 104.033 55.2225 103.917V103.917Z" fill="black"/>
<path d="M80.7701 93.2169C80.0997 92.8581 79.399 93.0626 78.7285 93.4322L43.2499 112.838C42.5795 113.197 42.5795 113.8 43.2499 114.17L101.307 145.924C101.684 146.104 102.101 146.198 102.524 146.198C102.947 146.198 103.364 146.104 103.742 145.924L139.217 126.514C139.891 126.155 139.891 125.552 139.217 125.186L80.7701 93.2169Z" fill="#BA68C8"/>
<path opacity="0.85" d="M80.7701 93.2169C80.0997 92.8581 79.399 93.0626 78.7285 93.4322L43.2499 112.838C42.5795 113.197 42.5795 113.8 43.2499 114.17L101.307 145.924C101.684 146.104 102.101 146.198 102.524 146.198C102.947 146.198 103.364 146.104 103.742 145.924L139.217 126.514C139.891 126.155 139.891 125.552 139.217 125.186L80.7701 93.2169Z" fill="white"/>
<path d="M47.3365 114.582L46.9577 114.374C46.9403 114.368 46.9253 114.357 46.9147 114.343C46.9041 114.328 46.8984 114.311 46.8984 114.293C46.8984 114.276 46.9041 114.259 46.9147 114.244C46.9253 114.23 46.9403 114.219 46.9577 114.213L46.9994 114.191C47.0448 114.168 47.0956 114.156 47.1471 114.156C47.1986 114.156 47.2493 114.168 47.2948 114.191L47.6736 114.396C47.7531 114.442 47.7531 114.514 47.6736 114.557L47.6319 114.582C47.5859 114.604 47.5354 114.615 47.4842 114.615C47.433 114.615 47.3825 114.604 47.3365 114.582V114.582Z" fill="#455A64"/>
<path d="M48.0108 114.213L47.3556 113.854C47.276 113.811 47.276 113.739 47.3556 113.692L47.3972 113.671C47.4432 113.649 47.4937 113.638 47.5449 113.638C47.5961 113.638 47.6466 113.649 47.6927 113.671L48.3479 114.03C48.4274 114.073 48.4274 114.144 48.3479 114.191L48.3062 114.213C48.2602 114.234 48.2097 114.245 48.1585 114.245C48.1073 114.245 48.0568 114.234 48.0108 114.213V114.213Z" fill="#455A64"/>
<path d="M48.6848 113.843L47.7568 113.337C47.6735 113.29 47.6735 113.219 47.7568 113.176L47.7985 113.15C47.8445 113.129 47.895 113.118 47.9462 113.118C47.9974 113.118 48.0479 113.129 48.0939 113.15L49.0219 113.66C49.0393 113.666 49.0543 113.677 49.0649 113.692C49.0755 113.706 49.0812 113.723 49.0812 113.741C49.0812 113.758 49.0755 113.775 49.0649 113.79C49.0543 113.804 49.0393 113.815 49.0219 113.822L48.9802 113.843C48.9348 113.866 48.884 113.878 48.8325 113.878C48.781 113.878 48.7303 113.866 48.6848 113.843V113.843Z" fill="#455A64"/>
<path d="M49.3561 113.477L47.7539 112.598C47.6706 112.555 47.6706 112.483 47.7539 112.436L47.7956 112.415C47.8413 112.393 47.8919 112.381 47.9433 112.381C47.9946 112.381 48.0452 112.393 48.091 112.415L49.6894 113.29C49.7727 113.337 49.7727 113.409 49.6894 113.452L49.6515 113.477C49.6055 113.498 49.555 113.509 49.5038 113.509C49.4526 113.509 49.4021 113.498 49.3561 113.477V113.477Z" fill="#455A64"/>
<path d="M51.291 112.537C51.2655 112.54 51.2398 112.533 51.2191 112.519L50.9842 112.39L50.2267 112.802C50.2105 112.813 50.1914 112.818 50.1718 112.818C50.1522 112.818 50.1331 112.813 50.1169 112.802L50.0298 112.756L49.9919 112.731V112.695L49.954 111.794C49.9515 111.781 49.9515 111.768 49.954 111.755C49.9665 111.741 49.982 111.73 49.9995 111.722L50.1017 111.665C50.1285 111.65 50.1581 111.64 50.1888 111.636C50.2169 111.637 50.2443 111.644 50.2684 111.658L51.0903 112.106L51.257 112.017C51.2819 112.001 51.3105 111.991 51.3403 111.988C51.3672 111.988 51.3936 111.995 51.416 112.009L51.4728 112.042C51.4994 112.042 51.5107 112.067 51.5069 112.081C51.5031 112.096 51.5069 112.106 51.4577 112.124L51.291 112.218L51.5259 112.347C51.5524 112.347 51.5638 112.372 51.56 112.386C51.5562 112.401 51.541 112.415 51.5069 112.433L51.3782 112.501C51.3537 112.521 51.3233 112.534 51.291 112.537V112.537ZM50.8327 112.253L50.2457 111.934L50.2835 112.555L50.8327 112.253Z" fill="#455A64"/>
<path d="M52.0445 111.97C51.7794 111.982 51.5162 111.921 51.287 111.794C51.0522 111.665 50.9461 111.525 50.965 111.374C50.984 111.224 51.1317 111.076 51.4006 110.929C51.5067 110.87 51.6183 110.819 51.7339 110.779C51.8356 110.741 51.9409 110.714 52.0483 110.696C52.0641 110.69 52.0817 110.69 52.0975 110.696C52.0991 110.702 52.0991 110.708 52.0975 110.714L52.1316 110.807C52.1354 110.811 52.1374 110.816 52.1374 110.822C52.1374 110.827 52.1354 110.832 52.1316 110.836H52.09C51.9268 110.867 51.7705 110.924 51.6279 111.005C51.4461 111.102 51.3476 111.206 51.3324 111.31C51.3173 111.414 51.4006 111.518 51.5824 111.615C51.7486 111.711 51.9407 111.76 52.1354 111.755C52.3281 111.748 52.5158 111.695 52.6808 111.6C52.7399 111.568 52.7969 111.532 52.8513 111.493C52.8945 111.464 52.9328 111.428 52.9649 111.389L52.5861 111.18L52.2718 111.353C52.245 111.368 52.2154 111.377 52.1847 111.381C52.1579 111.381 52.1318 111.373 52.1089 111.36L52.0559 111.331C52.0306 111.317 52.0193 111.302 52.0218 111.288C52.0218 111.288 52.0407 111.263 52.071 111.245L52.5748 110.969C52.6046 110.952 52.6384 110.942 52.6733 110.94C52.7042 110.94 52.7344 110.949 52.7604 110.965L53.3058 111.263C53.3211 111.269 53.3343 111.279 53.3437 111.292C53.3437 111.292 53.3437 111.31 53.3437 111.324C53.2247 111.493 53.0598 111.628 52.8664 111.715C52.6188 111.863 52.3365 111.95 52.0445 111.97V111.97Z" fill="#455A64"/>
<path d="M62.5287 104.998L63.4188 105.486C63.4564 105.503 63.4979 105.513 63.54 105.513C63.582 105.513 63.6235 105.503 63.6612 105.486L64.5588 104.998C64.6232 104.958 64.6232 104.901 64.5588 104.865L63.665 104.377C63.6279 104.357 63.5862 104.347 63.5438 104.347C63.5014 104.347 63.4596 104.357 63.4226 104.377L62.5287 104.865C62.4605 104.901 62.4605 104.958 62.5287 104.998Z" fill="#455A64"/>
<path d="M63.146 104.334C63.0281 104.28 62.8983 104.252 62.7672 104.255C62.6361 104.252 62.5061 104.279 62.3885 104.334C62.2143 104.431 62.2143 104.578 62.3885 104.671L62.6953 104.84L62.9188 104.797L62.612 104.632C62.5847 104.622 62.5613 104.604 62.5448 104.582C62.5282 104.559 62.5194 104.532 62.5194 104.504C62.5194 104.477 62.5282 104.45 62.5448 104.427C62.5613 104.404 62.5847 104.387 62.612 104.377C62.6608 104.352 62.7154 104.338 62.771 104.337C62.8258 104.336 62.8797 104.35 62.9263 104.377L63.2331 104.546L63.4604 104.503L63.146 104.334Z" fill="#455A64"/>
<path d="M79.399 95.4309C79.2489 95.4261 79.1001 95.4582 78.9672 95.5242L76.6946 96.7622C76.4976 96.8663 76.4976 97.0349 76.6946 97.1426L77.5203 97.5911C77.6533 97.6571 77.8021 97.6892 77.9521 97.6844C78.0219 97.684 78.0916 97.6779 78.1604 97.6665C78.238 97.6546 78.3125 97.629 78.3801 97.5911L80.6527 96.3567C80.8458 96.2491 80.8458 96.0804 80.6527 95.9763L79.827 95.5242C79.6953 95.4582 79.5478 95.426 79.399 95.4309ZM77.9597 97.5839C77.8947 97.583 77.831 97.567 77.7741 97.5373L76.9522 97.0852C76.9205 97.0745 76.8931 97.0548 76.8738 97.0287C76.8544 97.0027 76.844 96.9717 76.844 96.9398C76.844 96.908 76.8544 96.8769 76.8738 96.8509C76.8931 96.8249 76.9205 96.8052 76.9522 96.7945L79.2247 95.5601C79.2607 95.539 79.3005 95.5244 79.3421 95.517H79.4103C79.4744 95.5189 79.537 95.5362 79.5921 95.5673L80.414 96.0158C80.4457 96.0265 80.4731 96.0462 80.4924 96.0722C80.5118 96.0983 80.5222 96.1293 80.5222 96.1611C80.5222 96.193 80.5118 96.224 80.4924 96.25C80.4731 96.2761 80.4457 96.2958 80.414 96.3065L78.1415 97.5445C78.0863 97.5755 78.0238 97.5928 77.9597 97.5947V97.5839Z" fill="#455A64"/>
<path d="M78.0241 97.4439L77.9938 97.426L77.2363 97.0205C77.2131 97.0123 77.1931 96.9976 77.1789 96.9784C77.1648 96.9591 77.1572 96.9363 77.1572 96.9128C77.1572 96.8894 77.1648 96.8665 77.1789 96.8472C77.1931 96.828 77.2131 96.8133 77.2363 96.8052L79.274 95.6927C79.2866 95.6845 79.3008 95.6784 79.3157 95.6748L79.346 95.6927L80.1035 96.0982C80.1255 96.107 80.1443 96.1217 80.1575 96.1405C80.1707 96.1594 80.1777 96.1815 80.1777 96.2041C80.1777 96.2267 80.1707 96.2488 80.1575 96.2676C80.1443 96.2865 80.1255 96.3012 80.1035 96.31L78.0657 97.426L78.0241 97.4439Z" fill="#455A64"/>
<path d="M79.9441 95.4667C80.0223 95.4492 80.1036 95.4475 80.1825 95.4617C80.2615 95.4759 80.3364 95.5057 80.4024 95.5492L80.5539 95.6354C80.7243 95.7251 80.7963 95.8399 80.7168 95.8901L80.569 95.9762L79.8115 95.5492L79.9441 95.4667Z" fill="#455A64"/>
<path d="M67.0026 116.552C67.5594 116.53 68.1036 116.388 68.5934 116.136C69.5176 115.63 69.7562 114.941 68.2904 114.076C68.2411 114.337 68.1285 114.584 67.9616 114.797C67.7947 115.01 67.5779 115.183 67.3283 115.304C66.0708 115.993 64.6391 116.168 63.4839 115.54C62.3286 114.912 62.7263 113.979 63.9914 113.29C64.8054 112.851 65.7271 112.621 66.6642 112.624C67.6014 112.627 68.5213 112.863 69.332 113.308C71.472 114.478 70.9909 115.716 69.4759 116.538C68.683 116.959 67.7999 117.204 66.8927 117.256L67.0026 116.552ZM67.5366 113.703C66.4269 113.247 65.4837 113.312 64.7679 113.703C64.1656 114.03 64.0444 114.507 64.7111 114.869C65.0449 115.04 65.4218 115.122 65.801 115.105C66.1801 115.088 66.5472 114.973 66.8624 114.773C67.0749 114.679 67.2528 114.527 67.373 114.336C67.4932 114.145 67.5502 113.925 67.5366 113.703V113.703Z" fill="#455A64"/>
<path d="M70.1874 111.446C70.4133 111.316 70.6686 111.239 70.9321 111.222C71.1956 111.204 71.4598 111.247 71.7025 111.346C72.0813 111.561 72.0093 111.92 71.5245 112.182C71.295 112.314 71.0353 112.393 70.7671 112.411C70.4988 112.429 70.2299 112.386 69.9829 112.286C69.5928 112.074 69.6913 111.712 70.1874 111.446ZM73.1456 113.064C73.3716 112.935 73.6271 112.858 73.8907 112.842C74.1543 112.825 74.4183 112.868 74.6606 112.967C75.0394 113.179 74.9674 113.538 74.4826 113.804C74.2528 113.936 73.9932 114.014 73.7251 114.032C73.457 114.05 73.1883 114.007 72.9411 113.908C72.5547 113.696 72.6494 113.33 73.1342 113.079L73.1456 113.064Z" fill="#455A64"/>
<path d="M73.6452 111.109C71.7854 110.09 71.7854 109.031 73.3081 108.195C74.8307 107.359 76.7775 107.366 78.6335 108.382C80.4894 109.397 80.5273 110.488 79.0122 111.324C77.4972 112.16 75.5087 112.128 73.6452 111.109ZM77.3608 109.074C75.8041 108.224 74.8042 108.231 74.0883 108.622C73.3725 109.013 73.3573 109.562 74.914 110.416C76.4707 111.27 77.5388 111.285 78.2433 110.901C78.9478 110.517 78.9213 109.928 77.3608 109.074Z" fill="#455A64"/>
<path d="M79.5694 107.868C77.7059 106.849 77.7059 105.791 79.2286 104.958C80.7512 104.126 82.7018 104.129 84.554 105.141C86.4061 106.153 86.4705 107.251 84.9327 108.084C83.3949 108.916 81.4292 108.887 79.5694 107.868ZM83.2851 105.837C81.7246 104.983 80.7247 104.99 80.0088 105.382C79.2929 105.773 79.2778 106.322 80.8383 107.176C82.3988 108.03 83.4631 108.041 84.1638 107.657C84.8645 107.273 84.8418 106.688 83.2851 105.837Z" fill="#455A64"/>
<path d="M70.0204 124.429L99.8214 108.13C100.174 107.962 100.563 107.874 100.958 107.874C101.352 107.874 101.742 107.962 102.094 108.13L109.711 112.297C110.34 112.655 110.34 113.197 109.711 113.542L79.9212 129.84C79.5689 130.009 79.1797 130.097 78.7849 130.097C78.3902 130.097 78.001 130.009 77.6487 129.84L70.0204 125.674C69.3916 125.33 69.3916 124.773 70.0204 124.429Z" fill="#BA68C8"/>
<path d="M73.218 124.982L78.551 127.895C78.7026 127.97 78.8708 128.008 79.0415 128.008C79.2121 128.008 79.3803 127.97 79.532 127.895L87.3913 123.589C87.664 123.439 87.664 123.198 87.3913 123.051L82.0583 120.134C81.9061 120.061 81.7382 120.023 81.5678 120.023C81.3974 120.023 81.2295 120.061 81.0773 120.134L73.218 124.44C73.1568 124.458 73.1033 124.493 73.0653 124.542C73.0273 124.591 73.0068 124.65 73.0068 124.711C73.0068 124.771 73.0273 124.83 73.0653 124.879C73.1033 124.928 73.1568 124.964 73.218 124.982V124.982Z" fill="#FAFAFA"/>
<path d="M81.263 123.578L87.5845 123.341L81.2857 123.252L81.5395 120.033L80.5055 124.005L73.0098 124.709L79.1306 124.436L78.9791 128.006L79.4487 124.422L81.2024 124.343L81.263 123.578Z" fill="#BA68C8"/>
<path d="M84.5802 118.612L92.2805 114.417C92.4725 114.325 92.6846 114.277 92.8998 114.277C93.1149 114.277 93.3271 114.325 93.519 114.417C93.8561 114.6 93.8448 114.902 93.4925 115.095L85.7923 119.29C85.6003 119.382 85.3882 119.43 85.173 119.43C84.9578 119.43 84.7457 119.382 84.5537 119.29C84.2204 119.107 84.2356 118.82 84.5802 118.612Z" fill="#FAFAFA"/>
<path d="M86.9551 119.897L102.56 111.353C102.752 111.261 102.964 111.213 103.179 111.213C103.395 111.213 103.607 111.261 103.799 111.353C104.136 111.536 104.124 111.841 103.772 112.031L88.1671 120.575C87.9744 120.667 87.7617 120.715 87.546 120.715C87.3302 120.715 87.1175 120.667 86.9248 120.575C86.5915 120.403 86.6028 120.101 86.9551 119.897Z" fill="#FAFAFA"/>
<path d="M89.3223 121.203L104.931 112.659C105.123 112.567 105.335 112.519 105.55 112.519C105.766 112.519 105.978 112.567 106.17 112.659C106.503 112.842 106.492 113.147 106.143 113.337L90.5344 121.881C90.3424 121.973 90.1303 122.021 89.9151 122.021C89.6999 122.021 89.4878 121.973 89.2958 121.881C88.9587 121.691 88.9739 121.397 89.3223 121.203Z" fill="#FAFAFA"/>
<path d="M66.6084 65.5463L117.128 37.9155L119.15 39.0208C119.426 39.1926 119.655 39.4234 119.82 39.6945C119.984 39.9656 120.079 40.2695 120.097 40.5817V75.8881C120.08 76.2004 119.985 76.5044 119.82 76.7756C119.656 77.0467 119.426 77.2774 119.15 77.4491L70.5286 104.039C70.2344 104.178 69.9103 104.25 69.5817 104.25C69.2531 104.25 68.9289 104.178 68.6348 104.039L67.5667 103.454C67.2907 103.282 67.0609 103.052 66.8959 102.781C66.7308 102.51 66.6349 102.206 66.616 101.893L66.6084 65.5463Z" fill="#BA68C8"/>
<path opacity="0.05" d="M66.6084 65.5463L117.128 37.9155L119.15 39.0208C119.426 39.1926 119.655 39.4234 119.82 39.6945C119.984 39.9656 120.079 40.2695 120.097 40.5817V75.8881C120.08 76.2004 119.985 76.5044 119.82 76.7756C119.656 77.0467 119.426 77.2774 119.15 77.4491L70.5286 104.039C70.2344 104.178 69.9103 104.25 69.5817 104.25C69.2531 104.25 68.9289 104.178 68.6348 104.039L67.5667 103.454C67.2907 103.282 67.0609 103.052 66.8959 102.781C66.7308 102.51 66.6349 102.206 66.616 101.893L66.6084 65.5463Z" fill="black"/>
<path d="M116.847 34.808L117.056 34.7004L116.272 34.2697C116.204 34.2335 116.133 34.2023 116.06 34.1764L93.8263 26.3716C93.5215 26.2748 93.192 26.2723 92.8856 26.3645C92.5792 26.4568 92.3117 26.639 92.1218 26.8848L67.2485 61.2941C66.8624 61.8875 66.6421 62.5642 66.6084 63.2606V65.5464L67.3659 65.9698L117.116 37.912V35.6262C117.109 35.335 117.016 35.0515 116.847 34.808V34.808Z" fill="#BA68C8"/>
<path opacity="0.1" d="M93.1483 27.0536C93.0493 27.127 92.9625 27.2141 92.8908 27.3119L68.0175 61.7213C67.8131 62.0256 67.6574 62.357 67.5554 62.7045L66.7979 62.281C66.8539 62.104 66.9209 61.9303 66.9986 61.7607C67.0327 61.689 67.0668 61.6208 67.1046 61.5526V61.5203C67.144 61.4483 67.1883 61.3788 67.2372 61.3122L92.1181 26.8885C92.1556 26.8375 92.1974 26.7895 92.2431 26.745L92.3757 26.6301L93.1483 27.0536Z" fill="black"/>
<path opacity="0.35" d="M117.044 34.7004C116.977 34.6617 116.906 34.6292 116.832 34.6035L94.595 26.7951C94.3506 26.7181 94.0894 26.7014 93.8362 26.7466C93.5831 26.7918 93.3462 26.8974 93.1481 27.0535L92.3906 26.63C92.5903 26.4755 92.8278 26.3708 93.0812 26.3257C93.3346 26.2805 93.596 26.2964 93.8413 26.3717L116.075 34.1765C116.147 34.2022 116.217 34.2347 116.283 34.2734L117.044 34.7004Z" fill="white"/>
<path d="M67.1162 61.5023C67.1565 61.4308 67.2007 61.3613 67.2488 61.2942C67.2007 61.3613 67.1565 61.4308 67.1162 61.5023Z" fill="#BA68C8"/>
<path d="M92.2471 26.745C92.2876 26.703 92.3319 26.6646 92.3796 26.6301C92.3311 26.6637 92.2867 26.7022 92.2471 26.745V26.745Z" fill="#BA68C8"/>
<path d="M66.7783 62.281C66.8344 62.1028 66.9014 61.9279 66.9791 61.7571C66.9014 61.9279 66.8344 62.1028 66.7783 62.281V62.281Z" fill="#BA68C8"/>
<path d="M66.9912 61.7426C67.0253 61.6709 67.0632 61.6027 67.0973 61.5381C67.0632 61.6027 67.0253 61.6709 66.9912 61.7426Z" fill="#BA68C8"/>
<path opacity="0.2" d="M67.0967 61.5381C67.0967 61.5381 67.0967 61.513 67.0967 61.5022C67.0967 61.4915 67.1043 61.5274 67.0967 61.5381Z" fill="black"/>
<path opacity="0.2" d="M92.1221 26.8848C92.1585 26.8342 92.2003 26.7873 92.2471 26.7449C92.1993 26.7863 92.1572 26.8333 92.1221 26.8848V26.8848Z" fill="black"/>
<path d="M92.8904 27.3155L68.0208 61.7284C67.6314 62.3193 67.4096 62.9954 67.377 63.6913V65.9771L117.896 38.3463V36.0497C117.877 35.7403 117.768 35.4421 117.58 35.1885C117.392 34.9349 117.133 34.7361 116.832 34.6144L94.5986 26.8096C94.2938 26.7139 93.965 26.7113 93.6585 26.802C93.3521 26.8928 93.0834 27.0724 92.8904 27.3155V27.3155Z" fill="#BA68C8"/>
<path d="M72.8767 99.2309L71.2556 98.3445C71.1218 98.2479 71.0167 98.1201 70.9503 97.9736C70.8839 97.8271 70.8586 97.6669 70.8768 97.5084V49.6533C70.898 49.1675 71.0549 48.6958 71.3313 48.2861L72.9789 49.1832C72.7002 49.5945 72.5432 50.0692 72.5244 50.5576V98.3948C72.5043 98.5509 72.526 98.7094 72.5876 98.8556C72.6491 99.0017 72.7486 99.1308 72.8767 99.2309V99.2309Z" fill="#E0E0E0"/>
<path d="M73.8881 48.2719L114.469 26.0811C115.226 25.6577 115.859 25.9986 115.859 26.8419V74.6826C115.833 75.1404 115.694 75.5861 115.453 75.9833C115.211 76.3805 114.874 76.7181 114.469 76.9684L73.8881 99.1556C73.1306 99.5755 72.498 99.2346 72.498 98.3913V50.5577C72.5242 50.1001 72.6637 49.6547 72.9052 49.2576C73.1467 48.8606 73.4834 48.5229 73.8881 48.2719V48.2719Z" fill="#F0F0F0"/>
<path d="M113.805 25.087L115.396 25.9626C115.242 25.9082 115.076 25.8912 114.914 25.9131C114.751 25.9351 114.596 25.9952 114.465 26.0882L73.8877 48.2754C73.4985 48.4977 73.1752 48.8101 72.9484 49.1832L71.3008 48.2861C71.5294 47.9135 71.8505 47.5994 72.2363 47.3711L112.817 25.1624C112.958 25.0641 113.125 25.0044 113.299 24.9898C113.473 24.9753 113.649 25.0064 113.805 25.0798V25.087Z" fill="#FAFAFA"/>
<path d="M77.0543 50.7765L110.798 32.3177C111.253 32.0701 111.62 32.246 111.62 32.7124C111.6 32.9732 111.514 33.2258 111.372 33.4496C111.229 33.6734 111.032 33.8622 110.798 34.0007L77.0543 52.4595C76.5998 52.7071 76.2324 52.5313 76.2324 52.0684C76.2524 51.8069 76.3373 51.5537 76.4801 51.3292C76.6229 51.1047 76.8197 50.9154 77.0543 50.7765Z" fill="#E0E0E0"/>
<path d="M77.0543 54.1318L110.798 35.6729C111.253 35.4253 111.62 35.6012 111.62 36.0677C111.6 36.3285 111.514 36.581 111.372 36.8048C111.229 37.0286 111.032 37.2174 110.798 37.3559L77.0543 55.8147C76.5998 56.0623 76.2324 55.8865 76.2324 55.4236C76.2524 55.1622 76.3373 54.9089 76.4801 54.6844C76.6229 54.46 76.8197 54.2706 77.0543 54.1318V54.1318Z" fill="#E0E0E0"/>
<path d="M77.0543 57.4868L110.798 39.028C111.253 38.7804 111.62 38.9563 111.62 39.4192C111.6 39.6806 111.515 39.9338 111.372 40.1583C111.23 40.3828 111.033 40.5722 110.798 40.711L77.0543 59.1698C76.5998 59.4174 76.2324 59.2416 76.2324 58.7787C76.2524 58.5173 76.3373 58.264 76.4801 58.0395C76.6229 57.815 76.8197 57.6257 77.0543 57.4868V57.4868Z" fill="#E0E0E0"/>
<path d="M77.0543 60.8421L110.798 42.3869C111.253 42.1393 111.62 42.3152 111.62 42.7781C111.6 43.0395 111.515 43.2927 111.372 43.5172C111.23 43.7417 111.033 43.931 110.798 44.0699L77.0543 62.5287C76.5998 62.7763 76.2324 62.6005 76.2324 62.134C76.2524 61.8726 76.3373 61.6193 76.4801 61.3948C76.6229 61.1703 76.8197 60.981 77.0543 60.8421V60.8421Z" fill="#E0E0E0"/>
<path d="M77.0543 64.1973L110.798 45.7385C111.253 45.4909 111.62 45.6667 111.62 46.1296C111.6 46.391 111.515 46.6443 111.372 46.8688C111.23 47.0932 111.033 47.2826 110.798 47.4215L77.0543 65.8803C76.5998 66.1279 76.2324 65.952 76.2324 65.4855C76.253 65.2247 76.3381 64.9722 76.4809 64.7484C76.6237 64.5246 76.8202 64.3358 77.0543 64.1973Z" fill="#E0E0E0"/>
<path d="M77.0543 67.5523L110.798 49.0935C111.253 48.8459 111.62 49.0217 111.62 49.4846C111.6 49.746 111.515 49.9993 111.372 50.2237C111.23 50.4482 111.033 50.6376 110.798 50.7764L77.0543 69.2352C76.5998 69.4828 76.2324 69.307 76.2324 68.8405C76.253 68.5797 76.3381 68.3272 76.4809 68.1034C76.6237 67.8796 76.8202 67.6908 77.0543 67.5523Z" fill="#E0E0E0"/>
<path d="M77.0543 70.9074L110.798 52.4343C111.253 52.1867 111.62 52.3625 111.62 52.8254C111.6 53.0868 111.515 53.3401 111.372 53.5646C111.23 53.7891 111.033 53.9784 110.798 54.1173L77.0543 72.5761C76.5998 72.8237 76.2324 72.6478 76.2324 72.1813C76.2553 71.923 76.3415 71.6734 76.4842 71.4522C76.6269 71.2311 76.8221 71.0445 77.0543 70.9074V70.9074Z" fill="#E0E0E0"/>
<path d="M77.0543 74.2626L110.798 55.8038C111.253 55.5526 111.62 55.732 111.62 56.1949C111.6 56.4563 111.515 56.7096 111.372 56.9341C111.23 57.1586 111.033 57.3479 110.798 57.4868L77.0543 75.9456C76.5998 76.1932 76.2324 76.0173 76.2324 75.5508C76.253 75.29 76.3381 75.0375 76.4809 74.8137C76.6237 74.5899 76.8202 74.4011 77.0543 74.2626Z" fill="#E0E0E0"/>
<path d="M118.817 76.3549C118.802 76.3804 118.784 76.4045 118.764 76.4266L97.712 67.5812C96.9127 67.2462 96.0126 67.196 95.1774 67.44C94.3422 67.684 93.6282 68.2056 93.1668 68.9089L70.6608 103.121L69.8275 103.577C69.7347 103.638 69.6272 103.676 69.5147 103.688C69.4022 103.7 69.2884 103.685 69.1836 103.645L92.3298 68.4568C92.7922 67.7546 93.506 67.2336 94.3406 66.9892C95.1752 66.7447 96.0749 66.7931 96.8749 67.1255L118.817 76.3549Z" fill="#BA68C8"/>
<path opacity="0.4" d="M91.0872 72.0199L91.1402 71.9768L70.653 103.124L69.8197 103.58C69.7265 103.64 69.619 103.678 69.5067 103.69C69.3944 103.702 69.2808 103.688 69.1758 103.648L90.2615 71.5605L91.0872 72.0199Z" fill="white"/>
<path opacity="0.4" d="M118.817 76.3584C118.802 76.384 118.784 76.408 118.764 76.4302L97.7085 67.5811C96.9092 67.2461 96.0091 67.196 95.1739 67.44C94.3387 67.6839 93.6247 68.2056 93.1634 68.9089L92.3301 68.4495C92.7943 67.7492 93.5088 67.2305 94.3433 66.9881C95.1778 66.7456 96.0765 66.7956 96.8752 67.129L118.817 76.3584Z" fill="white"/>
<path d="M120.081 40.3521C120.036 40.0938 119.892 40.022 119.703 40.144C119.609 40.2102 119.527 40.2902 119.46 40.3808L119.354 40.5208L98.5943 67.9219L95.4922 72.0163C95.2925 72.2549 95.028 72.4374 94.727 72.5443C94.426 72.6511 94.1 72.6782 93.784 72.6228L91.1062 72.0199L70.653 67.4124C70.5155 67.3858 70.3738 67.3858 70.2363 67.4124C70.183 67.4226 70.1309 67.4382 70.0811 67.459L70.6454 67.1504L90.3411 71.5893L93.0265 72.1706C93.3425 72.2269 93.6688 72.2002 93.9699 72.0933C94.271 71.9864 94.5355 71.8034 94.7347 71.5642L97.8368 67.4734L118.714 39.9323C118.778 39.8504 118.858 39.781 118.949 39.7278L117.154 38.7481L117.911 38.3354L119.161 39.0172C119.401 39.1703 119.606 39.3673 119.764 39.5966C119.922 39.8258 120.03 40.0827 120.081 40.3521V40.3521Z" fill="#BA68C8"/>
<path opacity="0.4" d="M98.5946 67.922L95.4925 72.0164C95.2928 72.255 95.0283 72.4375 94.7273 72.5443C94.4263 72.6512 94.1003 72.6783 93.7843 72.6228L91.1064 72.02L91.1595 71.9769L91.2883 71.7831L93.0419 72.1779C93.358 72.2342 93.6842 72.2074 93.9854 72.1005C94.2865 71.9936 94.551 71.8106 94.7501 71.5714L97.8219 67.5237L98.5946 67.922Z" fill="white"/>
<path opacity="0.1" d="M119.146 39.0172L117.896 38.3354L117.139 38.7481L118.945 39.7349C118.854 39.7884 118.774 39.8578 118.711 39.9395L97.8369 67.4806L97.8066 67.52L98.5642 67.9184L119.351 40.5208L119.457 40.3808C119.524 40.2902 119.605 40.2102 119.699 40.144C119.885 40.022 120.029 40.0938 120.078 40.3521C120.025 40.0819 119.915 39.8244 119.755 39.5951C119.595 39.3658 119.388 39.1693 119.146 39.0172V39.0172Z" fill="black"/>
<path d="M71.0626 67.9865L66.6084 65.5464V101.893C66.6274 102.206 66.7232 102.51 66.8883 102.781C67.0534 103.052 67.2831 103.283 67.5591 103.454L68.6272 104.039C68.9214 104.178 69.2455 104.25 69.5741 104.25C69.9027 104.25 70.2268 104.178 70.521 104.039L71.0551 103.745L71.0626 67.9865Z" fill="#BA68C8"/>
<path opacity="0.15" d="M71.0626 67.9865L66.6084 65.5464V101.893C66.6274 102.206 66.7232 102.51 66.8883 102.781C67.0534 103.052 67.2831 103.283 67.5591 103.454L68.6272 104.039C68.9214 104.178 69.2455 104.25 69.5741 104.25C69.9027 104.25 70.2268 104.178 70.521 104.039L71.0551 103.745L71.0626 67.9865Z" fill="black"/>
<path d="M119.355 40.5208V75.4432C119.345 75.7667 119.243 76.0817 119.059 76.3547C118.92 76.5863 118.73 76.7869 118.503 76.9432L118.469 76.9647L118.404 77.0042L69.7863 103.594C69.7279 103.628 69.6656 103.656 69.6007 103.677C69.5967 103.623 69.5967 103.569 69.6007 103.515V68.2233C69.5922 68.0969 69.6163 67.9704 69.6709 67.8547C69.7255 67.7391 69.8089 67.6377 69.914 67.5594C70.0191 67.481 70.1426 67.428 70.2741 67.4049C70.4056 67.3818 70.541 67.3893 70.6688 67.4267L91.1219 72.0342L93.7998 72.6371C94.1158 72.6926 94.4418 72.6654 94.7428 72.5586C95.0438 72.4517 95.3083 72.2692 95.508 72.0306L98.5949 67.9219L119.355 40.5208Z" fill="#455A64"/>
<path d="M120.101 40.5925V75.8989C120.089 76.2221 119.987 76.5366 119.806 76.8104C119.664 77.0415 119.475 77.243 119.249 77.4025L119.211 77.4204C119.192 77.4348 119.171 77.448 119.15 77.4599L70.5324 104.036C70.4395 104.098 70.3315 104.138 70.2183 104.15C70.1051 104.163 69.9904 104.148 69.8847 104.107C69.8041 104.063 69.7361 104 69.6866 103.925C69.6371 103.85 69.6076 103.765 69.6007 103.677C69.5967 103.623 69.5967 103.569 69.6007 103.515V68.2233C69.5922 68.0969 69.6163 67.9704 69.6709 67.8547C69.7255 67.7391 69.8089 67.6377 69.914 67.5593C70.0191 67.481 70.1426 67.428 70.2741 67.4049C70.4056 67.3817 70.541 67.3892 70.6688 67.4267L91.1219 72.0342L93.7998 72.6371C94.1158 72.6925 94.4418 72.6654 94.7428 72.5586C95.0438 72.4517 95.3083 72.2692 95.508 72.0306L98.5949 67.9219L119.37 40.5207L119.476 40.3808C119.806 39.9179 120.101 40.004 120.101 40.5925Z" fill="#BA68C8"/>
<path d="M119.15 77.4455L119.211 77.4061L119.249 77.3881C119.475 77.2286 119.664 77.0272 119.805 76.796C119.982 76.5269 120.083 76.2192 120.097 75.9025L98.5947 67.9219L112.988 80.8151L119.15 77.4455Z" fill="#BA68C8"/>
<path opacity="0.2" d="M119.15 77.4455L119.211 77.4061L119.249 77.3881C119.475 77.2286 119.664 77.0272 119.805 76.796C119.982 76.5269 120.083 76.2192 120.097 75.9025L98.5947 67.9219L112.988 80.8151L119.15 77.4455Z" fill="black"/>
<path d="M69.5814 103.519C69.5675 103.634 69.5878 103.75 69.64 103.855C69.6922 103.96 69.7742 104.048 69.8768 104.111C69.9825 104.152 70.0972 104.166 70.2104 104.154C70.3236 104.141 70.4316 104.102 70.5245 104.039L87.262 94.8852L91.0837 72.0234L69.5814 102.93V103.519Z" fill="#BA68C8"/>
<path opacity="0.15" d="M93.1517 68.9051L69.8729 104.108C69.7703 104.045 69.6883 103.956 69.6361 103.851C69.5839 103.747 69.5636 103.63 69.5775 103.515V102.931L90.1178 71.8118L90.2769 71.5713L92.3184 68.4709L93.1517 68.9051Z" fill="black"/>
<path d="M119.806 76.796C119.664 77.0272 119.475 77.2286 119.249 77.3881L119.211 77.4061L70.5325 104.036C70.4396 104.098 70.3315 104.138 70.2183 104.15C70.1051 104.163 69.9904 104.148 69.8848 104.107L93.1635 68.8944C93.6304 68.188 94.3502 67.6646 95.1912 67.4201C96.0322 67.1756 96.938 67.2264 97.7427 67.5631L119.806 76.796Z" fill="#BA68C8"/>
<path d="M119.806 76.7998C119.666 77.0314 119.477 77.2321 119.249 77.3883L119.215 77.4098L70.5285 104.039C70.435 104.101 70.3269 104.139 70.2138 104.151C70.1007 104.163 69.9863 104.148 69.8809 104.108L70.5285 103.132L118.37 76.9577L118.408 76.9362C118.609 76.7963 118.781 76.6209 118.912 76.4194L119.806 76.7998Z" fill="#BA68C8"/>
<path opacity="0.15" d="M66.7786 62.281L67.5361 62.7044C67.4288 63.0227 67.3688 63.3537 67.3581 63.6877V65.9699L66.6006 65.5465V63.2606C66.6117 62.9279 66.6716 62.5981 66.7786 62.281V62.281Z" fill="black"/>
<path d="M71.354 67.2976L70.6419 67.1361L70.0775 67.4447L69.2973 67.0177L67.377 65.9699L68.1231 65.55L71.354 67.2976Z" fill="#BA68C8"/>
<path opacity="0.1" d="M71.3537 67.2977L68.1267 65.5537L67.3691 65.9736L69.2895 67.0214L70.0697 67.4484C70.1151 67.4271 70.1636 67.4125 70.2136 67.4053C70.3511 67.3788 70.4928 67.3788 70.6303 67.4053L72.2022 67.7642L90.1176 71.8119L90.2767 71.5715L71.3537 67.2977Z" fill="black"/>
<path d="M129.085 68.7044L125.491 66.7307L125.461 66.7128C123.893 65.8731 121.737 65.9951 119.355 67.3049C114.56 69.928 110.67 76.3082 110.67 81.5545C110.67 84.174 111.643 86.0149 113.208 86.8761L116.484 88.6703L117.241 87.4538C118.117 87.2701 118.957 86.9603 119.734 86.5352C124.529 83.9121 128.419 77.5319 128.419 72.2856C128.418 71.5768 128.326 70.8707 128.146 70.1828L129.085 68.7044Z" fill="#F28F8F"/>
<path opacity="0.15" d="M110.988 78.7949C110.776 79.7024 110.665 80.6286 110.658 81.558C110.658 84.1775 111.632 86.0184 113.196 86.8796L116.472 88.6738L117.23 87.4574C118.105 87.2736 118.946 86.9638 119.722 86.5387C120.571 86.0682 121.364 85.5137 122.089 84.8845L110.988 78.7949Z" fill="black"/>
<path d="M122.763 69.1745C117.968 71.7977 114.078 78.1779 114.078 83.4241C114.078 88.6704 117.968 90.7983 122.763 88.1752C127.558 85.5521 131.448 79.1719 131.448 73.9256C131.448 68.6793 127.562 66.5514 122.763 69.1745Z" fill="#FFA8A7"/>
<path d="M126.195 76.4768V74.4601C126.195 72.1599 124.717 71.1014 122.899 72.0989C121.078 73.0965 119.6 75.7663 119.6 78.0665V79.8607C119.56 81.1057 119.178 82.3192 118.491 83.3809C118.321 83.6624 118.229 83.9793 118.222 84.3031V84.3031C118.222 84.8809 118.6 85.15 119.051 84.8988L126.751 80.686C127.004 80.5141 127.21 80.2886 127.355 80.0275C127.499 79.7664 127.576 79.477 127.581 79.1825V79.1825C127.593 79.07 127.577 78.9564 127.535 78.8506C127.493 78.7448 127.426 78.6496 127.338 78.5724V78.5724C126.642 78.2925 126.195 77.5533 126.195 76.4768Z" fill="white"/>
<path d="M124.479 82.5771C124.479 83.6824 123.771 84.9634 122.9 85.4479C122.028 85.9323 121.316 85.4192 121.316 84.3175L124.479 82.5771Z" fill="white"/>
</svg>
