<svg width="186" height="53" viewBox="0 0 186 53" fill="none" xmlns="http://www.w3.org/2000/svg">
<path d="M106.175 4.38493C98.1314 3.44501 93.2564 6.60016 92.5689 11.7221C92.4189 12.8318 91.0814 13.809 90.0627 14.6827C86.6439 17.6266 83.1377 20.7073 79.5502 23.5809C76.4377 26.0694 73.7689 28.7691 71.0314 31.4356C65.3377 37.0089 63.0877 41.3234 66.2627 47.9443C66.9564 49.4018 68.5439 51.7827 71.4002 51.6916C74.2564 51.6046 74.7064 49.1989 75.2252 47.8284C75.4877 47.1245 75.8002 46.2881 76.6752 45.7829C77.1439 45.5138 77.5377 45.6007 78.0627 45.5055C78.5939 45.4102 78.6377 45.3399 79.0564 45.137C80.2252 44.5697 80.5439 44.843 81.4439 45.4268C82.7377 46.2673 84.8814 46.2011 86.5189 45.9858C87.4752 45.8616 87.7877 45.7249 88.3564 45.2529C88.9689 44.7395 89.9064 44.4041 90.4502 43.8575C91.0127 43.2944 91.0314 43.0956 92.0689 42.8679C94.2814 42.3834 94.8877 43.402 96.4689 44.1184C98.0189 44.8223 100.125 45.0956 101.956 44.814C102.844 44.6774 103.1 44.5159 103.538 44.0356C104.056 43.46 104.731 43.0708 105.356 42.5491C106.044 41.9694 106.594 41.6174 107.538 41.2241C108.394 40.868 109.163 40.7106 110.131 40.5077C111.906 40.1351 113.619 39.6175 115.381 39.2283C117.675 38.719 119.969 38.2097 122.263 37.6963C126.775 36.6777 131.275 35.6384 135.738 34.5411C138.288 33.9159 141.144 33.419 141.806 31.4481C142.031 30.7814 142.2 30.1065 142.306 29.4274C143.475 22.0406 136.869 15.4859 128.344 11.0803C124.031 8.85266 119.169 7.06391 114.031 5.80516C112.063 5.32899 109.2 4.74102 106.175 4.38493Z" fill="#FFE082"/>
<path d="M95.744 33.7627C95.4815 33.7627 95.2315 33.7544 94.9752 33.742C92.5127 33.5846 90.6002 32.1354 90.519 30.3632C90.4752 29.3239 91.194 28.3591 92.494 27.7215C92.819 27.56 93.3565 27.324 93.9565 27.1749C93.8377 26.9886 93.7315 26.7774 93.644 26.5456C93.4065 25.9079 93.4815 25.2868 93.869 24.7444C94.5127 23.8376 95.9002 23.2206 97.7752 22.9888C98.169 22.9432 98.6002 22.9184 99.044 22.9184C99.869 22.9184 101.925 23.0177 103.169 23.9328C103.594 24.2434 103.869 24.6119 103.988 25.0218C106.031 24.703 108.306 25.3199 109.381 26.5083C110.675 27.9409 110.481 30.1024 108.125 31.0423C107.075 31.4605 105.938 31.6509 104.531 31.6509C104.3 31.6509 104.144 31.6592 103.975 31.6675C103.338 31.6841 102.713 31.6841 102.219 31.6095C102.039 31.5814 101.865 31.5397 101.7 31.4853C101.688 31.5019 101.675 31.5143 101.663 31.5309C101.094 32.1313 100.356 32.7979 98.8877 33.1747C98.7627 33.2078 98.644 33.2534 98.5315 33.2989C98.2502 33.4024 97.9627 33.5059 97.6502 33.5722C97.0815 33.7006 96.444 33.7627 95.744 33.7627ZM95.0065 28.9471C94.9815 28.9595 94.6065 29.0796 94.2252 29.2659C93.6877 29.5268 93.4065 29.8995 93.419 30.3135C93.444 31.0091 94.144 31.7586 95.2502 31.8331C95.7752 31.8621 96.3315 31.8456 96.7252 31.7586C96.8627 31.7296 96.9815 31.6758 97.1065 31.6302C97.344 31.5391 97.5815 31.4563 97.8377 31.3901C98.3752 31.2534 98.7002 31.0464 99.2127 30.504C99.2315 30.4791 99.2502 30.446 99.2752 30.4088C99.4127 30.2017 99.644 29.8498 100.194 29.6096C100.569 29.444 100.969 29.357 101.394 29.357C102.05 29.357 102.531 29.5682 102.813 29.6883C102.863 29.709 102.913 29.738 102.969 29.7504C102.988 29.7504 103.119 29.7587 103.281 29.7587C103.456 29.7587 103.644 29.7504 103.825 29.7421C104.044 29.7338 104.263 29.7256 104.463 29.7256C105.406 29.7256 106.038 29.6262 106.631 29.3902C107.438 29.0672 107.438 28.09 106.9 27.4938C106.4 26.9389 105.225 26.6988 104.313 26.9596L104.263 26.9927C103.906 27.1584 103.288 27.4275 102.556 27.3654C102.327 27.3449 102.107 27.294 101.908 27.2157C101.71 27.1375 101.537 27.0335 101.4 26.9099C100.919 26.4752 101.05 25.9783 101.125 25.6802L101.144 25.5766C101.181 25.3365 101.069 25.2495 101.013 25.2123C100.706 24.9887 99.9127 24.8355 99.0377 24.8355C98.769 24.8355 98.5127 24.852 98.294 24.8769C97.3877 24.9845 96.7127 25.2413 96.4877 25.5601C96.3627 25.734 96.4002 25.941 96.4565 26.0859C96.569 26.3965 96.6752 26.4917 96.6815 26.4959C96.9315 26.5952 97.4002 26.8023 97.6565 27.2329C98.019 27.8333 97.8002 28.2515 97.5502 28.4958C97.3502 28.6904 96.8815 29.0134 95.9502 29.0134C95.719 29.0134 95.444 28.9927 95.194 28.9637C95.1252 28.9595 95.0627 28.9513 95.0065 28.9471Z" fill="#757F3F"/>
<path d="M73.4688 28.7566C73.625 27.7629 74.575 26.7443 76.6813 25.8458C78.2 25.1998 79.7688 24.968 81.5625 25.1336C85.65 25.5062 89.4438 26.9596 88.2688 30.1562C87.7813 31.4853 85.2126 32.5287 83.4063 32.9552C81.2063 33.4769 78.7563 33.4148 76.65 32.7399C75.7 32.4376 74.45 31.8662 73.8938 31.2617C73.3125 30.6282 73.35 29.4771 73.4688 28.7566Z" fill="#ED6C30"/>
<path d="M84.75 27.6842L83.8438 28.6407L86.0188 28.7608L86.7438 27.6842L85.6563 26.9638L84.75 27.6842ZM78.3313 28.8809L76.625 28.9471L77.7375 30.1893L79.4875 29.9533L79.7438 28.9513L78.3313 28.8809ZM81.6125 30.9678L79.875 30.9636L81.1375 32.3424L82.9063 32.1685L83.0625 31.1044L81.6125 30.9678ZM86.4563 29.2328L86.1875 29.8622L87.3188 29.8912L87.3625 29.2908L86.4563 29.2328ZM82.3063 29.208C82.3063 29.208 81.4938 29.7173 81.625 29.7463C81.7625 29.7752 82.8938 29.8663 82.8938 29.8663L83.3438 29.386L82.3063 29.208ZM76.6125 30.5827C76.6125 30.5827 75.575 31.3031 75.8438 31.3031C76.1125 31.3031 76.8875 31.212 76.8875 31.212L77.3375 30.7317L76.6125 30.5827ZM81.5625 26.0156C81.5625 26.0156 79.675 27.3199 80.1688 27.3199C80.6625 27.3199 82.0563 27.1584 82.0563 27.1584L82.875 26.2888L81.5625 26.0156Z" fill="white"/>
<path d="M88.6563 17.1008C88.5626 16.0988 89.2501 14.9932 91.1063 13.8752C92.4438 13.072 93.9376 12.6745 95.7438 12.6413C99.8626 12.5668 103.969 13.5854 103.606 16.8689C103.463 18.2353 101.181 19.5438 99.5063 20.1607C97.4688 20.9102 95.0376 21.1213 92.7876 20.6866C91.7751 20.4878 90.4001 20.0655 89.7063 19.5272C88.9751 18.9641 88.7313 17.8213 88.6563 17.1008Z" fill="#ED6C30"/>
<path d="M96.475 15.0512L95.5688 16.0118L97.7437 16.1319L98.4688 15.0512L97.3812 14.3307L96.475 15.0512ZM93.4938 16.8731L91.7875 16.9434L92.9 18.1815L94.6438 17.9496L94.9062 16.9434L93.4938 16.8731ZM99.2625 17.6266L97.5187 17.6225L98.7875 19.0055L100.55 18.8316L100.712 17.7674L99.2625 17.6266ZM93.1625 19.6638L94.0687 19.2746L94.6563 19.6348L94.3375 19.962L93.6562 20.0531L93.1625 19.6638ZM100.312 16.3638L100.044 16.9931L101.175 17.0221L101.219 16.4259L100.312 16.3638ZM100.9 14.1444C100.9 14.1444 100.087 14.6537 100.219 14.6827C100.356 14.7116 101.488 14.8027 101.488 14.8027L101.938 14.3224L100.9 14.1444ZM94.0188 14.2645C94.0188 14.2645 92.975 14.9849 93.25 14.9849C93.5188 14.9849 94.2937 14.8938 94.2937 14.8938L94.7438 14.4135L94.0188 14.2645ZM89.8125 17.8337L89.4062 18.314L90.0375 18.7653C90.0375 18.7653 90.4437 18.4341 90.4437 18.314C90.4437 18.1939 90.2625 17.8337 90.2625 17.8337H89.8125Z" fill="white"/>
<path d="M110.413 24.2765C110.569 23.2827 111.519 22.2641 113.625 21.3656C115.144 20.7197 116.713 20.4878 118.5 20.6534C122.588 21.0261 126.381 22.4795 125.213 25.676C124.725 27.0052 122.156 28.0486 120.35 28.4709C118.15 28.9927 115.7 28.9306 113.594 28.2556C112.644 27.9534 111.394 27.382 110.838 26.7774C110.256 26.1481 110.294 24.997 110.413 24.2765Z" fill="#ED6C30"/>
<path d="M115.906 22.6451L116.169 23.763L117.931 22.9101L117.419 21.7797L115.881 21.7051L115.906 22.6451ZM115.45 25.3158L114.225 26.1025L116.294 26.5621L117.388 25.6263L116.588 24.7568L115.45 25.3158ZM120.556 23.3862L119.238 24.1398L121.556 24.6367L122.719 23.7382L121.794 22.8645L120.556 23.3862ZM120.4 26.413L121.306 26.0197L121.894 26.384L121.581 26.7112L120.9 26.8023L120.4 26.413ZM115.825 27.1708C115.825 27.1708 115.013 27.6801 115.144 27.709C115.281 27.738 116.413 27.8291 116.413 27.8291L116.863 27.3488L115.825 27.1708ZM112.788 23.4028L112.381 23.8831L113.013 24.3344C113.013 24.3344 113.419 24.0032 113.419 23.8831C113.419 23.763 113.238 23.4028 113.238 23.4028H112.788Z" fill="white"/>
<path d="M96.8124 10.4965C98.6249 10.0327 100.187 10.6042 101.981 11.0348C103.262 11.3453 104.5 11.7304 105.731 12.1113C109.525 13.2914 113.319 14.4674 117.106 15.6474C118.956 16.223 120.812 16.8027 122.45 17.6142C124.381 18.5707 126.056 19.668 127.581 20.906C128.806 21.8956 130.031 23.6554 129.706 24.9224C129.525 25.3448 129.025 25.0963 128.919 24.9473C127.317 22.8255 124.962 20.9926 122.056 19.6059C118.456 17.8958 114.175 16.9434 109.931 16.0905C108.875 15.8752 107.794 15.664 106.862 15.2706C105.819 14.8317 105.012 14.1941 104.075 13.6599C101.862 12.3929 98.8999 11.7138 95.9749 11.8049C95.3562 11.8422 95.6937 10.8153 96.8124 10.4965Z" fill="#DDA450"/>
<path d="M141.644 24.6367C140.556 23.4442 138.687 22.8314 136.637 23.1419C134.712 23.4359 132.394 24.8562 131.487 26.0238C130.581 27.1873 130.075 29.2162 128.381 29.8912C126.425 30.6779 123.869 30.4377 121.794 31.0754C120.431 31.4977 118.856 32.0898 117.556 32.595C115.656 33.3362 113.894 33.6343 111.719 33.8827C109.544 34.1312 106.775 34.6032 105.444 35.7708C104.962 36.1973 104.637 36.6942 104.137 37.1124C102.187 38.7604 99.8749 37.7625 96.7561 37.4147C95.7624 37.3029 94.4999 37.2325 93.5312 37.4147C92.5062 37.6051 90.5124 38.5906 89.5686 38.9219C87.2062 39.7583 84.5187 38.9881 82.0624 39.6962C78.8187 40.6319 77.1374 43.0376 74.2062 44.3544C72.5374 45.1038 70.4249 45.4682 68.4624 45.1659C66.9812 44.9382 65.6249 44.2964 64.8687 43.431C65.0249 44.8305 65.4687 46.317 66.2499 47.9443C66.9437 49.4018 68.5312 51.7826 71.3874 51.6915C74.2437 51.6046 74.6937 49.1989 75.2124 47.8283C75.4749 47.1244 75.7874 46.288 76.6624 45.7829C77.1312 45.5137 77.5249 45.6007 78.0499 45.5055C78.5812 45.4102 78.6249 45.3398 79.0437 45.1369C80.2124 44.5697 80.5312 44.843 81.4312 45.4268C82.7249 46.2673 84.8687 46.2011 86.5062 45.9858C87.4624 45.8615 87.7749 45.7249 88.3437 45.2529C88.9562 44.7394 89.8937 44.404 90.4374 43.8575C90.9999 43.2944 91.0187 43.0956 92.0562 42.8679C94.2687 42.3834 94.8749 43.402 96.4562 44.1183C98.0061 44.8223 100.112 45.0955 101.944 44.814C102.831 44.6773 103.087 44.5158 103.525 44.0355C104.044 43.46 104.719 43.0708 105.344 42.549C106.031 41.9694 106.581 41.6174 107.525 41.224C108.381 40.868 109.15 40.7106 110.119 40.5077C111.894 40.1351 113.606 39.6175 115.369 39.2283C117.662 38.719 119.956 38.2097 122.25 37.6962C126.762 36.6776 131.262 35.6383 135.725 34.5411C138.275 33.9158 141.131 33.419 141.794 31.448C142.019 30.7814 142.187 30.1065 142.294 29.4274C142.369 28.9512 142.412 28.4751 142.425 28.0072C142.431 26.9927 142.475 25.5435 141.644 24.6367Z" fill="#DDA450"/>
<path d="M1.35 24.275L1.225 19.55C1.225 18.8 1.14167 18.2083 0.975 17.775C0.808333 17.3417 0.725 17.1083 0.725 17.075C0.725 16.7083 1.28333 16.425 2.4 16.225C3.53333 16.025 4.39167 15.925 4.975 15.925C5.575 15.925 5.9 16.0667 5.95 16.35C7 21.0333 7.88333 24.2833 8.6 26.1C8.68333 26.3 8.76667 26.4 8.85 26.4C8.95 26.4 9.03333 26.325 9.1 26.175C10.2167 23.025 11.2 19.9083 12.05 16.825C12.1167 16.625 12.2833 16.475 12.55 16.375C12.8167 16.2583 13.275 16.15 13.925 16.05C14.5917 15.95 15.25 15.9 15.9 15.9C16.55 15.9 16.875 16.0333 16.875 16.3C16.875 16.3167 16.85 16.45 16.8 16.7C16.75 16.9333 16.7 17.225 16.65 17.575C16.6 17.925 16.5417 18.35 16.475 18.85C16.325 20 16.225 21.325 16.175 22.825C16.1417 24.3083 16.125 25.8 16.125 27.3L16.175 29.925C16.175 31.125 16.25 31.9833 16.4 32.5C16.5667 33 16.65 33.2917 16.65 33.375C16.65 33.4417 16.5917 33.525 16.475 33.625C15.9583 34.0417 15.175 34.25 14.125 34.25C13.4583 34.25 13.0833 34.025 13 33.575C12.95 33.3417 12.925 32.975 12.925 32.475C12.925 31.9583 12.975 30.3917 13.075 27.775C13.175 25.1583 13.225 23.2583 13.225 22.075C13.225 20.875 13.1583 20.275 13.025 20.275C13.0083 20.275 13 20.2833 13 20.3C13 20.3 12.975 20.3083 12.925 20.325C12.875 20.3417 12.7417 20.6 12.525 21.1C12.325 21.6 11.9167 22.8333 11.3 24.8C10.6833 26.7667 10.125 28.6083 9.625 30.325C9.125 32.025 8.85 32.9417 8.8 33.075C8.61667 33.525 8.26667 33.75 7.75 33.75C7.5 33.75 7.3 33.6583 7.15 33.475C6.61667 31.0083 5.66667 27.4833 4.3 22.9L3.6 20.625C3.56667 20.5417 3.53333 20.5 3.5 20.5C3.41667 20.5 3.35833 20.5583 3.325 20.675C3.25833 21.7583 3.225 23.8917 3.225 27.075C3.225 30.2417 3.34167 32.2417 3.575 33.075C3.59167 33.1083 3.6 33.1583 3.6 33.225C3.6 33.575 3.325 33.8333 2.775 34C2.225 34.15 1.725 34.225 1.275 34.225C0.841667 34.225 0.625 34.125 0.625 33.925C0.625 33.9083 0.666667 33.775 0.75 33.525C1 32.675 1.15833 31.4417 1.225 29.825C1.30833 28.2083 1.35 26.3583 1.35 24.275ZM28.9828 26.5L28.9328 29.7C28.9328 31.9167 29.1745 33.25 29.6578 33.7C29.7245 33.7667 29.7578 33.8417 29.7578 33.925C29.7578 34.175 29.2161 34.3 28.1328 34.3C27.0661 34.3 26.4995 33.9833 26.4328 33.35C26.4161 33.2 26.4078 32.8917 26.4078 32.425L26.5078 28.425C26.5078 28.3083 26.4411 28.25 26.3078 28.25C25.5078 28.25 24.7578 28.475 24.0578 28.925C23.3578 29.375 23.0078 29.95 23.0078 30.65C23.0078 31.0167 23.1078 31.325 23.3078 31.575C23.5078 31.825 23.7495 31.95 24.0328 31.95C24.3328 31.95 24.5745 31.8917 24.7578 31.775C24.9578 31.6583 25.0745 31.5917 25.1078 31.575C25.3911 31.6083 25.5328 31.9083 25.5328 32.475C25.5328 33.025 25.2745 33.475 24.7578 33.825C24.2411 34.1583 23.6995 34.325 23.1328 34.325C22.5661 34.325 22.0745 34.225 21.6578 34.025C21.2578 33.825 20.9661 33.6 20.7828 33.35C20.5995 33.1 20.4495 32.8167 20.3328 32.5C20.2161 32.1167 20.1578 31.7833 20.1578 31.5C20.1578 30.3333 20.5245 29.4 21.2578 28.7C21.9911 28 22.9328 27.5 24.0828 27.2C25.5995 26.9 26.3911 26.625 26.4578 26.375C26.5078 26.1917 26.5328 25.8833 26.5328 25.45C26.5328 24.5667 26.0828 24.125 25.1828 24.125C24.7995 24.125 24.4578 24.25 24.1578 24.5C23.8578 24.7333 23.7078 25.0333 23.7078 25.4L23.8578 26C23.8245 26.2833 23.5245 26.45 22.9578 26.5L22.6828 26.525C22.1828 26.525 21.7828 26.4 21.4828 26.15C21.1995 25.9 21.0578 25.5667 21.0578 25.15C21.0578 24.8833 21.1411 24.5917 21.3078 24.275C21.4911 23.9417 21.7161 23.675 21.9828 23.475C22.2495 23.275 22.6578 23.1 23.2078 22.95C23.7745 22.7833 24.3161 22.7 24.8328 22.7C25.3495 22.7 25.7495 22.7167 26.0328 22.75C26.3161 22.7833 26.6995 22.8667 27.1828 23C27.6828 23.1167 28.0911 23.35 28.4078 23.7C28.7411 24.05 28.9161 24.425 28.9328 24.825C28.9661 25.2083 28.9828 25.7667 28.9828 26.5ZM35.6461 20.625L35.0461 20.6C34.5961 20.6 34.3044 20.7083 34.1711 20.925C34.1378 20.975 34.0961 21 34.0461 21C33.8294 21 33.7211 20.6333 33.7211 19.9C33.7211 19.15 33.8294 18.675 34.0461 18.475C34.2794 18.275 34.6794 18.175 35.2461 18.175C35.8128 18.175 36.1878 18.275 36.3711 18.475C36.5711 18.6583 36.6711 18.975 36.6711 19.425C36.6711 19.875 36.5961 20.1917 36.4461 20.375C36.2961 20.5417 36.0294 20.625 35.6461 20.625ZM36.7211 23C36.5711 24.35 36.4961 25.9333 36.4961 27.75C36.4294 30.2 36.3961 32.3083 36.3961 34.075L36.4211 36.05C36.4211 36.9167 36.2878 37.7167 36.0211 38.45C35.7711 39.2 35.4628 39.8083 35.0961 40.275C34.7461 40.7417 34.2044 41.15 33.4711 41.5C32.7544 41.85 31.9128 42.025 30.9461 42.025C30.6461 42.025 30.4961 41.9167 30.4961 41.7C30.4961 41.5833 30.6294 41.4667 30.8961 41.35C32.0628 40.8 32.8878 39.5667 33.3711 37.65C33.8711 35.7333 34.1211 33.4 34.1211 30.65C34.1211 26.7833 33.8211 24.6667 33.2211 24.3C33.0544 24.1833 32.9711 24.0833 32.9711 24C32.9711 23.7167 33.4044 23.4333 34.2711 23.15C35.1378 22.8667 35.7628 22.725 36.1461 22.725C36.5294 22.725 36.7211 22.8167 36.7211 23ZM43.0957 27.65L43.1207 28.275C43.1207 28.375 43.1874 28.425 43.3207 28.425C43.854 28.375 44.3207 28.2417 44.7207 28.025C45.1207 27.7917 45.4207 27.5333 45.6207 27.25C46.0207 26.6333 46.2374 26.1 46.2707 25.65L46.2957 25.35C46.2957 24.45 45.9374 24 45.2207 24C44.6874 24 44.254 24.2333 43.9207 24.7C43.3707 25.4333 43.0957 26.4167 43.0957 27.65ZM48.5457 30.975C48.5457 31.6083 48.4124 32.1667 48.1457 32.65C47.8957 33.1167 47.604 33.4667 47.2707 33.7C46.954 33.9167 46.579 34.0917 46.1457 34.225C45.5957 34.3917 45.0707 34.475 44.5707 34.475C43.1707 34.475 42.1374 33.95 41.4707 32.9C40.804 31.85 40.4707 30.5167 40.4707 28.9C40.4707 27.2667 40.879 25.8167 41.6957 24.55C42.529 23.2833 43.7707 22.65 45.4207 22.65C46.9207 22.65 47.9374 23.175 48.4707 24.225C48.6874 24.625 48.7957 25.0083 48.7957 25.375C48.7957 25.725 48.779 26.0083 48.7457 26.225C48.7124 26.425 48.5957 26.7333 48.3957 27.15C48.1957 27.5667 47.929 27.9417 47.5957 28.275C47.2624 28.6083 46.7374 28.925 46.0207 29.225C45.304 29.525 44.4624 29.725 43.4957 29.825C43.3624 29.825 43.2957 29.8833 43.2957 30C43.2957 30.15 43.3457 30.375 43.4457 30.675C43.5624 30.9583 43.6874 31.2 43.8207 31.4C44.1874 31.8667 44.729 32.1 45.4457 32.1C46.1624 32.1 46.7707 31.8667 47.2707 31.4C47.5374 31.15 47.754 30.8417 47.9207 30.475C47.9874 30.3417 48.0707 30.275 48.1707 30.275C48.2874 30.275 48.379 30.3667 48.4457 30.55C48.5124 30.7333 48.5457 30.875 48.5457 30.975ZM60.0248 30.575C60.0248 31.2917 59.8831 31.9167 59.5998 32.45C59.3331 32.9833 59.0248 33.375 58.6748 33.625C58.3248 33.875 57.9081 34.075 57.4248 34.225C56.7915 34.425 56.2165 34.525 55.6998 34.525C54.6165 34.525 53.7165 34.3167 52.9998 33.9C52.2831 33.4667 51.9248 32.7833 51.9248 31.85C51.9248 31.3 52.0748 30.85 52.3748 30.5C52.8415 29.9833 53.3998 29.725 54.0498 29.725C54.2498 29.725 54.3498 29.8167 54.3498 30C54.3498 30.0167 54.3081 30.15 54.2248 30.4C54.1581 30.6333 54.1248 30.9333 54.1248 31.3C54.1248 31.6667 54.2665 31.9917 54.5498 32.275C54.8498 32.5583 55.2081 32.7 55.6248 32.7C56.0415 32.7 56.3748 32.6333 56.6248 32.5C56.8748 32.35 57.0498 32.1667 57.1498 31.95C57.2998 31.65 57.3748 31.3667 57.3748 31.1C57.3748 30.6167 57.1331 30.2 56.6498 29.85C56.1665 29.5 55.6331 29.225 55.0498 29.025C54.4665 28.825 53.9331 28.4917 53.4498 28.025C52.9665 27.5583 52.7248 26.975 52.7248 26.275C52.7248 25.075 53.0998 24.175 53.8498 23.575C54.6165 22.975 55.6498 22.675 56.9498 22.675C57.5165 22.675 58.1081 22.7583 58.7248 22.925C59.3581 23.075 59.6748 23.3417 59.6748 23.725C59.6748 24.0917 59.6081 24.4333 59.4748 24.75C59.3581 25.0667 59.2081 25.225 59.0248 25.225C58.9248 25.225 58.8581 25.1917 58.8248 25.125C58.7915 25.0417 58.7331 24.95 58.6498 24.85C58.5665 24.75 58.3665 24.625 58.0498 24.475C57.7331 24.3083 57.4581 24.225 57.2248 24.225C57.0081 24.225 56.8581 24.2333 56.7748 24.25C56.7081 24.25 56.5831 24.275 56.3998 24.325C56.2165 24.3583 56.0498 24.4167 55.8998 24.5C55.5165 24.7167 55.3248 25.0333 55.3248 25.45C55.3248 25.7167 55.3831 25.9167 55.4998 26.05C55.6165 26.1667 55.7081 26.2583 55.7748 26.325C55.8415 26.3917 55.9581 26.475 56.1248 26.575C56.2915 26.6583 56.4081 26.7167 56.4748 26.75C56.5415 26.7833 56.6915 26.8583 56.9248 26.975C57.1581 27.075 57.3081 27.1417 57.3748 27.175C59.1415 28.0083 60.0248 29.1417 60.0248 30.575ZM63.1436 24.25L63.2186 23.25C63.2352 23.1 63.3519 23.025 63.5686 23.025H64.4436L64.3436 21.025V20.925C64.3436 20.5417 64.6352 20.175 65.2186 19.825C65.8019 19.475 66.3352 19.3 66.8186 19.3C66.9686 19.3 67.0436 19.3667 67.0436 19.5V19.525C66.9769 19.975 66.9102 21.1333 66.8436 23C67.5769 23 68.0436 22.9833 68.2436 22.95C68.4436 22.9167 68.5519 22.9 68.5686 22.9C68.6852 22.9 68.7436 23 68.7436 23.2C68.7436 23.4 68.6519 23.6583 68.4686 23.975C68.2852 24.275 68.0852 24.4333 67.8686 24.45H66.8186C66.8019 25.0167 66.7936 25.975 66.7936 27.325C66.7936 28.6583 66.8019 29.7583 66.8186 30.625C66.8519 31.4917 66.8852 32.15 66.9186 32.6C66.9519 33.0333 66.9852 33.3833 67.0186 33.65C67.0686 33.9167 67.1019 34.1083 67.1186 34.225C67.1519 34.3417 67.1686 34.4167 67.1686 34.45C67.1686 34.6167 67.0602 34.7083 66.8436 34.725C66.1936 34.725 65.5436 34.6333 64.8936 34.45C64.2602 34.2667 63.9436 33.95 63.9436 33.5C64.2936 30.7 64.4686 27.6917 64.4686 24.475C64.0186 24.475 63.6769 24.4917 63.4436 24.525H63.4186C63.2686 24.525 63.1769 24.4333 63.1436 24.25ZM76.2785 40.925C76.2785 41.125 76.1785 41.225 75.9785 41.225H75.9535C75.4035 41.225 74.7785 41.0333 74.0785 40.65C73.3952 40.2667 73.0535 39.825 73.0535 39.325C73.0535 38.825 73.3702 37.95 74.0035 36.7C74.6368 35.4667 74.9535 34.6417 74.9535 34.225C74.9535 33.775 74.7368 32.9667 74.3035 31.8C73.7535 30.2833 73.3118 29.05 72.9785 28.1C72.6618 27.15 72.3118 26.3167 71.9285 25.6C71.5618 24.8667 71.2952 24.4333 71.1285 24.3L70.8785 24.125C70.6952 24.025 70.6035 23.9167 70.6035 23.8C70.6035 23.5667 70.9618 23.3333 71.6785 23.1C72.4118 22.85 73.0535 22.725 73.6035 22.725C73.8535 22.725 74.0618 22.925 74.2285 23.325C74.5285 24.1083 74.8535 25.1917 75.2035 26.575C76.0535 29.4083 76.5868 30.825 76.8035 30.825C76.9535 30.825 77.2535 30.2417 77.7035 29.075C78.1702 27.9083 78.4035 26.9667 78.4035 26.25C78.4035 25 78.0368 24.2667 77.3035 24.05C77.1368 24.0167 77.0535 23.9333 77.0535 23.8C77.0535 23.5 77.4452 23.2167 78.2285 22.95C79.0118 22.6667 79.7202 22.525 80.3535 22.525C80.9035 22.525 81.1785 22.8833 81.1785 23.6C81.1785 24.15 81.0618 24.7917 80.8285 25.525C80.5952 26.2583 80.3785 26.8417 80.1785 27.275C79.9785 27.6917 79.4785 28.675 78.6785 30.225C77.8952 31.7583 77.2452 33.1083 76.7285 34.275C76.1618 35.675 75.8785 37.1 75.8785 38.55C75.8785 39.3167 75.9452 39.8917 76.0785 40.275C76.2118 40.6583 76.2785 40.875 76.2785 40.925Z" fill="#6D544D"/>
<path d="M129.881 30.9C129.881 32.0667 129.506 32.9333 128.756 33.5C128.023 34.0667 126.99 34.35 125.656 34.35C123.523 34.35 121.948 33.6417 120.931 32.225C119.931 30.8083 119.431 28.9583 119.431 26.675C119.431 26.3083 119.448 25.775 119.481 25.075H118.081C117.948 25.075 117.881 25.025 117.881 24.925C117.881 24.6417 118.023 24.3 118.306 23.9C118.59 23.5 118.898 23.3 119.231 23.3H119.706C119.923 22.1 120.273 21.0417 120.756 20.125C121.256 19.2083 121.773 18.5 122.306 18C122.856 17.5 123.456 17.1 124.106 16.8C125.14 16.3 126.223 16.05 127.356 16.05C128.49 16.05 129.198 16.2333 129.481 16.6C129.615 16.7833 129.681 17.125 129.681 17.625C129.681 18.1083 129.623 18.35 129.506 18.35C129.49 18.35 129.415 18.3167 129.281 18.25C128.848 18.05 128.306 17.95 127.656 17.95C126.24 17.95 125.131 18.45 124.331 19.45C123.548 20.45 123.023 21.7333 122.756 23.3C124.023 23.2833 125.74 23.275 127.906 23.275C128.073 23.275 128.156 23.3333 128.156 23.45C128.156 23.7167 128.023 24.0583 127.756 24.475C127.49 24.875 127.19 25.075 126.856 25.075H122.556C122.54 25.275 122.531 25.7167 122.531 26.4C122.531 27.0667 122.648 27.775 122.881 28.525C123.131 29.2583 123.581 29.8833 124.231 30.4C124.898 30.9167 125.756 31.175 126.806 31.175C127.856 31.175 128.74 30.9417 129.456 30.475C129.54 30.4083 129.615 30.375 129.681 30.375C129.815 30.375 129.881 30.55 129.881 30.9ZM141.82 26.5L141.77 29.7C141.77 31.9167 142.011 33.25 142.495 33.7C142.561 33.7667 142.595 33.8417 142.595 33.925C142.595 34.175 142.053 34.3 140.97 34.3C139.903 34.3 139.336 33.9833 139.27 33.35C139.253 33.2 139.245 32.8917 139.245 32.425L139.345 28.425C139.345 28.3083 139.278 28.25 139.145 28.25C138.345 28.25 137.595 28.475 136.895 28.925C136.195 29.375 135.845 29.95 135.845 30.65C135.845 31.0167 135.945 31.325 136.145 31.575C136.345 31.825 136.586 31.95 136.87 31.95C137.17 31.95 137.411 31.8917 137.595 31.775C137.795 31.6583 137.911 31.5917 137.945 31.575C138.228 31.6083 138.37 31.9083 138.37 32.475C138.37 33.025 138.111 33.475 137.595 33.825C137.078 34.1583 136.536 34.325 135.97 34.325C135.403 34.325 134.911 34.225 134.495 34.025C134.095 33.825 133.803 33.6 133.62 33.35C133.436 33.1 133.286 32.8167 133.17 32.5C133.053 32.1167 132.995 31.7833 132.995 31.5C132.995 30.3333 133.361 29.4 134.095 28.7C134.828 28 135.77 27.5 136.92 27.2C138.436 26.9 139.228 26.625 139.295 26.375C139.345 26.1917 139.37 25.8833 139.37 25.45C139.37 24.5667 138.92 24.125 138.02 24.125C137.636 24.125 137.295 24.25 136.995 24.5C136.695 24.7333 136.545 25.0333 136.545 25.4L136.695 26C136.661 26.2833 136.361 26.45 135.795 26.5L135.52 26.525C135.02 26.525 134.62 26.4 134.32 26.15C134.036 25.9 133.895 25.5667 133.895 25.15C133.895 24.8833 133.978 24.5917 134.145 24.275C134.328 23.9417 134.553 23.675 134.82 23.475C135.086 23.275 135.495 23.1 136.045 22.95C136.611 22.7833 137.153 22.7 137.67 22.7C138.186 22.7 138.586 22.7167 138.87 22.75C139.153 22.7833 139.536 22.8667 140.02 23C140.52 23.1167 140.928 23.35 141.245 23.7C141.578 24.05 141.753 24.425 141.77 24.825C141.803 25.2083 141.82 25.7667 141.82 26.5ZM145.458 24.25L145.533 23.25C145.55 23.1 145.666 23.025 145.883 23.025H146.758L146.658 21.025V20.925C146.658 20.5417 146.95 20.175 147.533 19.825C148.116 19.475 148.65 19.3 149.133 19.3C149.283 19.3 149.358 19.3667 149.358 19.5V19.525C149.291 19.975 149.225 21.1333 149.158 23C149.891 23 150.358 22.9833 150.558 22.95C150.758 22.9167 150.866 22.9 150.883 22.9C151 22.9 151.058 23 151.058 23.2C151.058 23.4 150.966 23.6583 150.783 23.975C150.6 24.275 150.4 24.4333 150.183 24.45H149.133C149.116 25.0167 149.108 25.975 149.108 27.325C149.108 28.6583 149.116 29.7583 149.133 30.625C149.166 31.4917 149.2 32.15 149.233 32.6C149.266 33.0333 149.3 33.3833 149.333 33.65C149.383 33.9167 149.416 34.1083 149.433 34.225C149.466 34.3417 149.483 34.4167 149.483 34.45C149.483 34.6167 149.375 34.7083 149.158 34.725C148.508 34.725 147.858 34.6333 147.208 34.45C146.575 34.2667 146.258 33.95 146.258 33.5C146.608 30.7 146.783 27.6917 146.783 24.475C146.333 24.475 145.991 24.4917 145.758 24.525H145.733C145.583 24.525 145.491 24.4333 145.458 24.25ZM156.055 27.65L156.08 28.275C156.08 28.375 156.146 28.425 156.28 28.425C156.813 28.375 157.28 28.2417 157.68 28.025C158.08 27.7917 158.38 27.5333 158.58 27.25C158.98 26.6333 159.196 26.1 159.23 25.65L159.255 25.35C159.255 24.45 158.896 24 158.18 24C157.646 24 157.213 24.2333 156.88 24.7C156.33 25.4333 156.055 26.4167 156.055 27.65ZM161.505 30.975C161.505 31.6083 161.371 32.1667 161.105 32.65C160.855 33.1167 160.563 33.4667 160.23 33.7C159.913 33.9167 159.538 34.0917 159.105 34.225C158.555 34.3917 158.03 34.475 157.53 34.475C156.13 34.475 155.096 33.95 154.43 32.9C153.763 31.85 153.43 30.5167 153.43 28.9C153.43 27.2667 153.838 25.8167 154.655 24.55C155.488 23.2833 156.73 22.65 158.38 22.65C159.88 22.65 160.896 23.175 161.43 24.225C161.646 24.625 161.755 25.0083 161.755 25.375C161.755 25.725 161.738 26.0083 161.705 26.225C161.671 26.425 161.555 26.7333 161.355 27.15C161.155 27.5667 160.888 27.9417 160.555 28.275C160.221 28.6083 159.696 28.925 158.98 29.225C158.263 29.525 157.421 29.725 156.455 29.825C156.321 29.825 156.255 29.8833 156.255 30C156.255 30.15 156.305 30.375 156.405 30.675C156.521 30.9583 156.646 31.2 156.78 31.4C157.146 31.8667 157.688 32.1 158.405 32.1C159.121 32.1 159.73 31.8667 160.23 31.4C160.496 31.15 160.713 30.8417 160.88 30.475C160.946 30.3417 161.03 30.275 161.13 30.275C161.246 30.275 161.338 30.3667 161.405 30.55C161.471 30.7333 161.505 30.875 161.505 30.975ZM172.765 27.3L172.865 28.175C172.865 28.4917 172.565 28.65 171.965 28.65C170.748 28.65 170.14 28.1917 170.14 27.275C170.14 27.0583 170.198 26.7583 170.315 26.375C170.431 25.9917 170.49 25.6583 170.49 25.375C170.49 25.0917 170.406 24.85 170.24 24.65C170.073 24.4333 169.831 24.325 169.515 24.325C169.198 24.325 168.923 24.4417 168.69 24.675C168.473 24.8917 168.34 25.1167 168.29 25.35L168.19 25.7C168.09 26.2167 168.04 27.0833 168.04 28.3C168.04 29.5 168.056 30.45 168.09 31.15C168.123 31.8333 168.156 32.3083 168.19 32.575C168.223 32.825 168.24 32.975 168.24 33.025C168.24 33.4417 167.981 33.775 167.465 34.025C166.948 34.2917 166.431 34.425 165.915 34.425C165.398 34.425 165.14 34.3167 165.14 34.1L165.265 33.325C165.498 31.875 165.615 29.9833 165.615 27.65C165.615 25.3167 165.531 23.7333 165.365 22.9C165.365 22.7 165.54 22.6 165.89 22.6C166.79 22.6 167.39 22.9083 167.69 23.525C167.706 23.5917 167.731 23.625 167.765 23.625C167.815 23.625 167.931 23.55 168.115 23.4C168.665 22.95 169.315 22.725 170.065 22.725C170.531 22.725 170.998 22.8167 171.465 23C172.415 23.3833 172.89 24.1833 172.89 25.4L172.765 27.3ZM180.951 40.925C180.951 41.125 180.851 41.225 180.651 41.225H180.626C180.076 41.225 179.451 41.0333 178.751 40.65C178.068 40.2667 177.726 39.825 177.726 39.325C177.726 38.825 178.043 37.95 178.676 36.7C179.31 35.4667 179.626 34.6417 179.626 34.225C179.626 33.775 179.41 32.9667 178.976 31.8C178.426 30.2833 177.985 29.05 177.651 28.1C177.335 27.15 176.985 26.3167 176.601 25.6C176.235 24.8667 175.968 24.4333 175.801 24.3L175.551 24.125C175.368 24.025 175.276 23.9167 175.276 23.8C175.276 23.5667 175.635 23.3333 176.351 23.1C177.085 22.85 177.726 22.725 178.276 22.725C178.526 22.725 178.735 22.925 178.901 23.325C179.201 24.1083 179.526 25.1917 179.876 26.575C180.726 29.4083 181.26 30.825 181.476 30.825C181.626 30.825 181.926 30.2417 182.376 29.075C182.843 27.9083 183.076 26.9667 183.076 26.25C183.076 25 182.71 24.2667 181.976 24.05C181.81 24.0167 181.726 23.9333 181.726 23.8C181.726 23.5 182.118 23.2167 182.901 22.95C183.685 22.6667 184.393 22.525 185.026 22.525C185.576 22.525 185.851 22.8833 185.851 23.6C185.851 24.15 185.735 24.7917 185.501 25.525C185.268 26.2583 185.051 26.8417 184.851 27.275C184.651 27.6917 184.151 28.675 183.351 30.225C182.568 31.7583 181.918 33.1083 181.401 34.275C180.835 35.675 180.551 37.1 180.551 38.55C180.551 39.3167 180.618 39.8917 180.751 40.275C180.885 40.6583 180.951 40.875 180.951 40.925Z" fill="black"/>
</svg>
