<!-- icon666.com - MILLIONS vector ICONS FREE --><svg id="Capa_1" enable-background="new 0 0 512 512" viewBox="0 0 512 512" xmlns="http://www.w3.org/2000/svg"><g><path d="m405.567 54.099h-98.058v21.87c0 4.99-4.045 9.036-9.036 9.036h-84.947c-4.99 0-9.036-4.045-9.036-9.036v-21.87h-98.059c-13.893 0-25.156 11.263-25.156 25.156v407.588c0 13.893 11.263 25.156 25.156 25.156h299.135c13.893 0 25.156-11.263 25.156-25.156v-407.587c.002-13.894-11.261-25.157-25.155-25.157z" fill="#c17d4f"/><g><path d="m115.53 486.844v-407.589c0-13.893 11.263-25.156 25.156-25.156h-34.254c-13.893 0-25.156 11.263-25.156 25.156v407.588c0 13.893 11.263 25.156 25.156 25.156h34.254c-13.893.001-25.156-11.262-25.156-25.155z" fill="#b16e3d"/></g><path d="m394.817 85.004h-277.634c-2.762 0-5.001 2.239-5.001 5.001v386.088c0 2.762 2.239 5.001 5.001 5.001h277.634c2.762 0 5.001-2.239 5.001-5.001v-386.087c0-2.762-2.239-5.002-5.001-5.002z" fill="#dbedff"/><path d="m146.435 476.093v-386.087c0-2.762 2.239-5.001 5.001-5.001h-34.254c-2.762 0-5.001 2.239-5.001 5.001v386.088c0 2.762 2.239 5.001 5.001 5.001h34.254c-2.762 0-5.001-2.24-5.001-5.002z" fill="#b5dcff"/><path d="m256 0c-14.558 0-26.36 11.802-26.36 26.36v15.377l2.185 2.562h46.358l4.177-2.562v-15.377c0-14.558-11.802-26.36-26.36-26.36z" fill="#ffc861"/><path d="m256 26.36c0-9.755 5.303-18.267 13.18-22.825-3.878-2.244-8.377-3.535-13.18-3.535-14.558 0-26.36 11.802-26.36 26.36v15.377l2.185 2.562h26.36l-2.185-2.562z" fill="#ebb044"/><g><path d="m272.658 123.636h-33.316c-15.363 0-27.861-12.498-27.861-27.86v-17.481c0-4.268 3.459-7.726 7.726-7.726s7.726 3.459 7.726 7.726v17.481c0 6.841 5.566 12.407 12.408 12.407h33.316c6.842 0 12.408-5.566 12.408-12.407v-17.824c0-4.268 3.459-7.726 7.726-7.726s7.726 3.459 7.726 7.726v17.824c.001 15.362-12.497 27.86-27.859 27.86z" fill="#ffc861"/></g><path d="m332.926 378.939c-1.981-.768-31.12-12.052-45.536-17.635-6.818 9.748-18.112 16.145-30.885 16.145-14.172 0-25.411-6.64-32.068-16.258l-45.443 17.748c-8.836 3.636-20.666 15.077-20.666 32.054v25.421c0 5.356 4.342 9.698 9.698 9.698h175.867c5.356 0 9.698-4.342 9.698-9.698v-25.421c.001-14.621-9.36-27.402-20.665-32.054z" fill="#7fb3fa"/><path d="m201.523 446.112v-35.34c0-4.268-3.459-7.726-7.726-7.726s-7.726 3.459-7.726 7.726v35.34z" fill="#64a6f4"/><path d="m325.85 446.112v-35.34c0-4.268-3.459-7.726-7.726-7.726s-7.726 3.459-7.726 7.726v35.34z" fill="#64a6f4"/><path d="m277.089 354.706-.004-14.172c-6.011 3.608-13.039 5.688-20.546 5.688-8.283 0-15.621-2.14-21.732-5.758v14.218c0 1.574-.757 2.502-1.628 3.093l-9.824 3.837c6.48 10.497 18.185 17.896 33.15 17.896 13.476 0 25.317-7.115 31.979-17.782-4.875-1.888-8.329-3.226-8.953-3.467-1.464-.565-2.437-1.974-2.442-3.553z" fill="#ffcebe"/><path d="m255.92 346.202c-8.026-.105-15.156-2.211-21.112-5.737v14.218c0 1.574-.757 2.502-1.628 3.093l-9.824 3.837c6.395 10.358 17.883 17.685 32.565 17.878v-33.289z" fill="#ffb1a0"/><path d="m283.286 266.74c0-.737-.986-.99-1.333-.341-4.48 8.38-13.31 14.084-23.477 14.084h-43.144v27.752c0 20.931 16.4 40.048 41.208 40.048 22.083 0 40.049-17.966 40.049-40.048v-27.775c-7.356-.236-13.303-6.31-13.303-13.72z" fill="#ffdecf"/><g><path d="m236.872 308.234v-27.752h-21.54v27.752c0 20.931 16.4 40.048 41.207 40.048 3.597 0 7.082-.484 10.401-1.378-18.457-4.737-30.068-21.06-30.068-38.67z" fill="#ffcebe"/></g><path d="m291.741 233.968c-3.601.277-6.904-1.987-7.597-5.531-1.167-5.969-4.122-11.892-15.666-11.892h-40.049c-14.698 0-26.614 11.915-26.614 26.614v29.208c0 6.189 5.017 11.206 11.206 11.206h45.455c10.167 0 18.997-5.704 23.477-14.084.347-.65 1.333-.396 1.333.341 0 7.559 6.184 13.743 13.743 13.743 3.962 0 7.204-3.242 7.204-7.204v-30.48c0-7.18-6.265-12.4-12.492-11.921z" fill="#c17d4f"/><g><path d="m223.355 272.367v-29.208c0-14.699 11.915-26.614 26.614-26.614h-21.54c-14.698 0-26.614 11.915-26.614 26.614v29.208c0 6.189 5.017 11.206 11.206 11.206h21.54c-6.189 0-11.206-5.017-11.206-11.206z" fill="#b16e3d"/></g><path d="m178.994 378.939c-8.836 3.636-20.666 15.077-20.666 32.054v25.421c0 5.356 4.342 9.698 9.698 9.698h7.098c0-12.43 0-30.064 0-40.292 0-11.096 8.888-23.779 15.06-31.252z" fill="#64a6f4"/><g><path d="m314.387 192.143h-116.774c-4.267 0-7.726-3.459-7.726-7.726 0-4.268 3.459-7.726 7.726-7.726h116.773c4.267 0 7.726 3.459 7.726 7.726.001 4.267-3.458 7.726-7.725 7.726z" fill="#8bcaff"/></g><g><path d="m285.193 160.561h-58.387c-4.267 0-7.726-3.459-7.726-7.726s3.459-7.726 7.726-7.726h58.387c4.267 0 7.726 3.459 7.726 7.726s-3.458 7.726-7.726 7.726z" fill="#8bcaff"/></g><path d="m298.473 41.737h-84.947c-4.99 0-9.036 4.045-9.036 9.036v25.196c0 4.99 4.045 9.036 9.036 9.036h84.947c4.99 0 9.036-4.045 9.036-9.036v-25.196c0-4.991-4.045-9.036-9.036-9.036z" fill="#ffe07d"/><path d="m238.744 75.969v-25.196c0-4.99 4.045-9.036 9.036-9.036h-34.254c-4.99 0-9.036 4.045-9.036 9.036v25.196c0 4.99 4.045 9.036 9.036 9.036h34.254c-4.99 0-9.036-4.046-9.036-9.036z" fill="#ffc861"/></g></svg>